<svg width="55" height="53" viewBox="0 0 55 53" fill="none" xmlns="http://www.w3.org/2000/svg"><path d="M36.33 10.33a8.36 8.36 0 0 1 8.34 8.34v16.66a8.36 8.36 0 0 1-8.34 8.34H19.67a8.36 8.36 0 0 1-8.34-8.34V18.67a8.36 8.36 0 0 1 8.34-8.34h16.66Zm0-3.33H19.67A11.7 11.7 0 0 0 8 18.67v16.66A11.7 11.7 0 0 0 19.67 47h16.66A11.7 11.7 0 0 0 48 35.33V18.67A11.7 11.7 0 0 0 36.33 7Z" stroke="#3133F7" stroke-width="1.5"/><path d="M38.75 18.8a2.44 2.44 0 0 1-2.28-1.56 2.54 2.54 0 0 1 .53-2.73 2.46 2.46 0 0 1 4.22 1.78 2.53 2.53 0 0 1-1.52 2.31c-.3.13-.62.2-.95.2Zm-10.7 1.66a6.52 6.52 0 0 1 6.08 4.13 6.77 6.77 0 0 1-1.42 7.28 6.56 6.56 0 0 1-7.18 1.45 6.75 6.75 0 0 1-2.13-10.9 6.55 6.55 0 0 1 4.65-1.96Zm0-3.34c-1.95 0-3.86.59-5.49 1.69a10.16 10.16 0 0 0-1.5 15.42 9.84 9.84 0 0 0 10.77 2.18 9.91 9.91 0 0 0 4.43-3.7 10.13 10.13 0 0 0-1.23-12.65 9.8 9.8 0 0 0-6.98-2.94Z" stroke="#3133F7" stroke-width="1.5"/><path d="M44.67.75H10.33C5.03.75.75 4.92.75 9.95v33.1c0 5.03 4.29 9.2 9.58 9.2h34.34c5.3 0 9.58-4.17 9.58-9.2V9.95c0-5.03-4.29-9.2-9.58-9.2Z" stroke="#3133F7" stroke-width="1.5"/></svg>