<svg width="55" height="53" viewBox="0 0 55 53" fill="none" xmlns="http://www.w3.org/2000/svg"><path d="M44.67.75H10.33C5.03.75.75 4.92.75 9.95v33.1c0 5.03 4.29 9.2 9.58 9.2h34.34c5.3 0 9.58-4.17 9.58-9.2V9.95c0-5.03-4.29-9.2-9.58-9.2Z" stroke="#3133F7" stroke-width="1.5"/><path d="M13.63 10C11.07 10 9 11.87 9 14.17s2.07 4.16 4.63 4.16 4.63-1.87 4.63-4.16c0-2.3-2.07-4.17-4.63-4.17ZM9.45 44h8.36V21.12H9.45V44ZM37.7 20.58a9.13 9.13 0 0 0-7.07 3.14v-2.6h-8.36V44h8.36V30.6c.23-2.89 2.52-3.64 4.14-3.64 1.7 0 3.87.75 3.87 4.95V44H47V27.88s-.37-7.3-9.3-7.3Z" stroke="#3133F7" stroke-width="1.5"/></svg>