<svg width="55" height="53" viewBox="0 0 55 53" fill="none" xmlns="http://www.w3.org/2000/svg"><path d="M44.67.75H10.33C5.03.75.75 4.92.75 9.95v33.1c0 5.03 4.29 9.2 9.58 9.2h34.34c5.3 0 9.58-4.17 9.58-9.2V9.95c0-5.03-4.29-9.2-9.58-9.2Z" stroke="#3133F7" stroke-width="1.5"/><path d="M38.81 15.57h.01l2.44-2-.48-.58.5.57a2.9 2.9 0 0 1 3.28-.39c.52.28.96.7 1.27 1.25.3.54.45 1.17.42 1.8V39.3c0 .53-.2 1.03-.55 1.39-.35.36-.81.56-1.29.56h-5.3V25.11l-1.22.95L28 33.83l-9.89-7.77-1.2-.95v16.14h-5.32c-.47 0-.94-.2-1.28-.56a2.02 2.02 0 0 1-.55-1.4V16.2c-.04-.63.1-1.27.39-1.82.3-.55.74-1 1.27-1.28a2.9 2.9 0 0 1 3.3.38h.02v.01l2.44 2 10.36 8.13.46.36.46-.36 10.35-8.05Z" stroke="#3133F7" stroke-width="1.5"/></svg>