<svg width="55" height="53" viewBox="0 0 55 53" fill="none" xmlns="http://www.w3.org/2000/svg"><path d="M44.67.75H10.33C5.03.75.75 4.92.75 9.95v33.1c0 5.03 4.29 9.2 9.58 9.2h34.34c5.3 0 9.58-4.17 9.58-9.2V9.95c0-5.03-4.29-9.2-9.58-9.2Z" stroke="#3133F7" stroke-width="1.5"/><path d="M31.89 21.4c.26 1.24 1.54 2.08 2.9 1.87 1.39-.21 2.32-1.42 2.1-2.7l-.03-.12-.02-.06-.03-.11-.06-.2a5.17 5.17 0 0 0-.43-.95 7.8 7.8 0 0 0-2.73-2.72 10.9 10.9 0 0 0-4.48-1.36c-.74-.08-1.46-.07-2.16-.08-.74-.04-1.52-.01-2.3.1-1.56.23-3.18.8-4.52 1.87a7.05 7.05 0 0 0-1.72 1.96 5.88 5.88 0 0 0-.82 2.62c-.06.96.15 2 .67 2.93a6.04 6.04 0 0 0 2.18 2.18c.43.25.88.45 1.31.61l.33.12.24.07.47.15c.63.18 1.24.36 1.85.52 1.2.33 2.36.64 3.46.96 1.1.32 2.13.69 2.94 1.1.4.19.75.4.99.6.23.19.35.34.4.45l.07.2a2.5 2.5 0 0 1-.09 1.11c-.04.1-.09.21-.16.32-.06.1-.13.21-.24.32-.2.22-.48.45-.83.65-.7.4-1.67.7-2.7.83a11.04 11.04 0 0 1-3.03-.02 4.44 4.44 0 0 1-2.23-1.06 4.12 4.12 0 0 1-1.03-1.47c-.04-.1-.1-.34-.12-.43-.4-1.24-1.82-1.94-3.16-1.57-1.35.37-2.1 1.69-1.7 2.93.04.13.06.15.09.21l.07.16a6.65 6.65 0 0 0 .46.78 10.57 10.57 0 0 0 2.37 2.58 9.98 9.98 0 0 0 4.36 1.92c.77.15 1.57.2 2.24.22.7.03 1.4.02 2.13-.01 1.43-.1 2.93-.3 4.45-.9.76-.3 1.53-.7 2.23-1.28a6.32 6.32 0 0 0 2.4-6.05c-.07-.5-.21-1-.43-1.46a6.6 6.6 0 0 0-1.77-2.29c-.69-.58-1.39-1-2.07-1.35a23.13 23.13 0 0 0-3.94-1.46c-1.26-.37-2.5-.65-3.67-.94l-1.73-.43-.72-.2-.36-.14a1 1 0 0 1-.36-.28.67.67 0 0 1-.12-.39c-.02-.36.18-.94.66-1.43.47-.5 1.18-.93 2.04-1.15.44-.11.9-.19 1.39-.22.54 0 1.06.08 1.55.17.98.18 1.84.51 2.43.95a2.9 2.9 0 0 1 .91 1.12 1.3 1.3 0 0 1 .07.24v.02-.01Zm0 0v-.01l-.02-.06.02.07Zm14.05 10.05c.36-1.34.56-2.73.56-4.17 0-9.32-8.17-16.88-18.25-16.88-1.14 0-2.25.1-3.33.28A10.64 10.64 0 0 0 19.12 9C13.54 9 9 13.2 9 18.37c0 1.82.56 3.5 1.52 4.94-.33 1.27-.51 2.6-.51 3.97 0 9.33 8.16 16.89 18.24 16.89 1.27 0 2.5-.12 3.7-.35 1.46.75 3.13 1.18 4.92 1.18C42.47 45 47 40.8 47 35.63c0-1.5-.38-2.93-1.06-4.18Z" stroke="#3133F7" stroke-width="1.5"/></svg>