<svg width="55" height="53" viewBox="0 0 55 53" fill="none" xmlns="http://www.w3.org/2000/svg"><path d="M44.67.75H10.33C5.03.75.75 4.92.75 9.95v33.1c0 5.03 4.29 9.2 9.58 9.2h34.34c5.3 0 9.58-4.17 9.58-9.2V9.95c0-5.03-4.29-9.2-9.58-9.2Z" stroke="#3133F7" stroke-width="1.5"/><path d="m45.97 11.6-4.75 29.18a2.26 2.26 0 0 1-1.18 1.62 2.48 2.48 0 0 1-2.08.11l-9.1-3.59-3.77 5.36c-.3.47-.78.72-1.3.72a1.5 1.5 0 0 1-1.54-1.46v-6.77c0-.5.18-.98.5-1.38l16.13-19.64-21.8 18.58-7.62-3a2.27 2.27 0 0 1-1.46-2c-.05-.92.41-1.67 1.2-2.1L42.45 9.3c.8-.43 1.77-.4 2.52.1a2.2 2.2 0 0 1 1 2.2Z" stroke="#3133F7" stroke-width="1.5"/></svg>